<?xml version="1.0"?><svg width="1600" height="1200" xmlns="http://www.w3.org/2000/svg">
 <title>brown log with green leaf</title>
 <defs>
  <linearGradient id="svg_57" x1="0.621094" y1="0.502865" x2="1" y2="0.498958" spreadMethod="pad">
   <stop stop-color="#825229" stop-opacity="0.992188" offset="0"/>
   <stop stop-color="#7f3f00" offset="0"/>
   <stop stop-color="#b7763e" stop-opacity="0.992188" offset="0.484375"/>
   <stop stop-color="#b7763e" stop-opacity="0.992188" offset="1"/>
   <stop stop-color="#aa703d" stop-opacity="0.992188" offset="1"/>
  </linearGradient>
  <radialGradient id="svg_63" spreadMethod="pad" cx="0.621094" cy="0.245052" r="0.676292">
   <stop stop-color="#5b381c" stop-opacity="0.988281" offset="0"/>
   <stop stop-color="#7f3f00" offset="0"/>
   <stop stop-color="#b7763e" stop-opacity="0.992188" offset="1"/>
   <stop stop-color="#aa703d" stop-opacity="0.992188" offset="1"/>
  </radialGradient>
 </defs>
 <g>
  <title>Layer 1</title>
  <g id="svg_1">
   <path fill="url(#svg_57)" stroke="#494949" stroke-linejoin="round" d="m1480.264893,823.729797c-81.084351,94.436401 -53.11377,75.747498 -173.910645,75.747498c-120.803345,0 -669.12323,1.539307 -594.144348,-42.534302c74.978821,-44.06366 120.534668,-76.058533 112.205811,-170.494568c-8.329102,-94.436218 58.808289,-97.07428 -24.499695,-147.437012c-83.307251,-50.362671 389.332275,-97.996307 514.296265,-72.816345c124.963867,25.179993 52.115356,58.937683 119.143311,96.71814c67.028198,37.780579 127.993652,166.380676 46.909302,260.816589z" id="svg_28"/>
   <path stroke-width="10" fill="url(#svg_63)" stroke="#7f3f00" stroke-linejoin="round" d="m1470.008301,822.747864c-81.082886,94.445374 -53.110962,75.756531 -173.913574,75.756531c-120.802734,0 -466.079956,-125.958679 -391.106995,-170.032166c74.982178,-44.054565 125.259949,-9.944214 116.930542,-104.380249c-8.329163,-94.436035 134.354431,-45.140442 51.052307,-95.503113c-83.311462,-50.362854 106.023438,-88.552734 230.990601,-63.366699c124.957886,25.176636 52.109863,58.9375 119.140625,96.711975c67.030762,37.783936 127.989136,166.377502 46.906494,260.813721z" opacity="0.78" id="svg_52"/>
   <g id="svg_49">
    <path fill="#007f00" stroke="#4f4f4f" stroke-linejoin="round" d="m385.289764,261.399811c-9.757141,84.314667 40.979736,92.540466 68.299591,106.935577c27.319855,14.395294 89.765198,8.225983 124.890747,61.693695c35.125488,53.467865 -15.611389,-86.371063 -56.591064,-121.330841c-40.979828,-34.959778 -21.465729,-47.298431 -60.493988,-26.733917c-39.028442,20.564636 -66.348236,-104.879166 -76.105286,-20.564514z" id="svg_46"/>
    <path fill="#43b77b" stroke="#4f4f4f" stroke-width="0" stroke-linejoin="round" d="m588.593079,440.078766c-8.293579,-20.564392 -46.904358,-61.403168 -95.02829,-84.376587c-48.123901,-22.973419 -93.076721,-76.407715 -96.491547,-95.429932c-6.829987,-38.044479 15.929688,35.495056 38.371124,44.749176c11.220703,4.627014 57.801361,47.645325 97.552094,65.857574c39.750977,18.21228 63.89032,89.764252 55.596619,69.199768z" id="svg_48"/>
   </g>
   <path stroke-width="10" fill="#7f3f00" stroke="#7f3f00" stroke-linejoin="round" d="m135.031036,840.195923c103.567169,112.356628 174.901489,79.773376 356.931061,79.773376c182.029602,0 1022.392517,1.526245 895.287292,-30.45813c-127.105225,-31.99353 -181.62854,-82.441711 -169.078003,-176.072144c12.550293,-93.630676 -76.06543,-221.857635 77.712769,-243.711121c153.787964,-21.843933 -818.416718,-1.189148 -1006.720642,-7.434204c-188.303009,-6.245239 -151.550842,91.214905 -176.658279,159.874207c-25.107529,68.659302 -81.041363,105.671448 22.525803,218.028015z" id="svg_27"/>
   <path fill="#563517" stroke="#4f4f4f" stroke-width="0" stroke-linejoin="round" d="m176.232788,589.195557c572.561096,-93.210144 686.041138,-18.400635 686.041138,-18.400635c0,0 -560.220459,14.787231 -560.220459,14.787231c0,0 -125.820679,3.613403 -125.820679,3.613403z" id="svg_36"/>
   <path fill="#563517" stroke="#4f4f4f" stroke-width="0" stroke-linejoin="round" d="m499.439972,814.158264c570.6716,102.163513 682.270599,37.888184 682.270599,37.888184c0,0 -557.137512,-30.723145 -557.137512,-30.723145c0,0 -125.133087,-7.165039 -125.133087,-7.165039z" id="svg_37"/>
   <path fill="#563517" stroke="#4f4f4f" stroke-width="0" stroke-linejoin="round" d="m621.138123,681.987427c467.684753,1.664978 546.230286,-56.576355 546.230286,-56.576355c0,0 -446.014893,46.350037 -446.014893,46.350037c0,0 -100.215393,10.226318 -100.215393,10.226318z" id="svg_38"/>
   <path fill="#563517" stroke="#4f4f4f" stroke-width="0" stroke-linejoin="round" d="m707.943542,781.501953c-459.505203,-87.102478 -547.371292,-44.195496 -547.371292,-44.195496c0,0 446.974564,35.936218 446.974564,35.936218c0,0 100.396729,8.259277 100.396729,8.259277z" id="svg_39"/>
   <path fill="#7f3f00" stroke="#4f4f4f" stroke-linejoin="round" d="m566.471375,492.641815c39.006226,-99.157867 19.503235,-184.15033 19.503235,-184.15033c0,0 54.608765,56.661652 54.608765,56.661652c0,0 -23.403809,47.218048 -23.403809,47.218048c0,0 39.006165,9.443604 39.006165,9.443604" id="svg_45"/>
   <line id="svg_51" y2="275" x2="251" y1="276" x1="251" stroke-linejoin="round" stroke="#000000" fill="none"/>
  </g>
 </g>
</svg>